<svg width="50" height="48" viewBox="0 0 50 48" fill="none" xmlns="http://www.w3.org/2000/svg">
<g filter="url(#filter0_i_36_29)">
<g clip-path="url(#clip0_36_29)">
<path d="M9.23901 44C8.43901 44 7.73901 43.7 7.13901 43.1C6.53901 42.5 6.23901 41.8 6.23901 41V10C6.23901 9.2 6.53901 8.5 7.13901 7.9C7.73901 7.3 8.43901 7 9.23901 7H12.489V4H15.739V7H32.739V4H35.989V7H39.239C40.039 7 40.739 7.3 41.339 7.9C41.939 8.5 42.239 9.2 42.239 10V41C42.239 41.8 41.939 42.5 41.339 43.1C40.739 43.7 40.039 44 39.239 44H9.23901ZM9.23901 41H39.239V19.5H9.23901V41ZM9.23901 16.5H39.239V10H9.23901V16.5ZM9.23901 16.5V10V16.5ZM24.239 28C23.6723 28 23.1973 27.8083 22.814 27.425C22.4307 27.0417 22.239 26.5667 22.239 26C22.239 25.4333 22.4307 24.9583 22.814 24.575C23.1973 24.1917 23.6723 24 24.239 24C24.8057 24 25.2807 24.1917 25.664 24.575C26.0473 24.9583 26.239 25.4333 26.239 26C26.239 26.5667 26.0473 27.0417 25.664 27.425C25.2807 27.8083 24.8057 28 24.239 28ZM16.239 28C15.6723 28 15.1973 27.8083 14.814 27.425C14.4307 27.0417 14.239 26.5667 14.239 26C14.239 25.4333 14.4307 24.9583 14.814 24.575C15.1973 24.1917 15.6723 24 16.239 24C16.8057 24 17.2807 24.1917 17.664 24.575C18.0473 24.9583 18.239 25.4333 18.239 26C18.239 26.5667 18.0473 27.0417 17.664 27.425C17.2807 27.8083 16.8057 28 16.239 28ZM32.239 28C31.6723 28 31.1973 27.8083 30.814 27.425C30.4307 27.0417 30.239 26.5667 30.239 26C30.239 25.4333 30.4307 24.9583 30.814 24.575C31.1973 24.1917 31.6723 24 32.239 24C32.8057 24 33.2807 24.1917 33.664 24.575C34.0473 24.9583 34.239 25.4333 34.239 26C34.239 26.5667 34.0473 27.0417 33.664 27.425C33.2807 27.8083 32.8057 28 32.239 28ZM24.239 36C23.6723 36 23.1973 35.8083 22.814 35.425C22.4307 35.0417 22.239 34.5667 22.239 34C22.239 33.4333 22.4307 32.9583 22.814 32.575C23.1973 32.1917 23.6723 32 24.239 32C24.8057 32 25.2807 32.1917 25.664 32.575C26.0473 32.9583 26.239 33.4333 26.239 34C26.239 34.5667 26.0473 35.0417 25.664 35.425C25.2807 35.8083 24.8057 36 24.239 36ZM16.239 36C15.6723 36 15.1973 35.8083 14.814 35.425C14.4307 35.0417 14.239 34.5667 14.239 34C14.239 33.4333 14.4307 32.9583 14.814 32.575C15.1973 32.1917 15.6723 32 16.239 32C16.8057 32 17.2807 32.1917 17.664 32.575C18.0473 32.9583 18.239 33.4333 18.239 34C18.239 34.5667 18.0473 35.0417 17.664 35.425C17.2807 35.8083 16.8057 36 16.239 36ZM32.239 36C31.6723 36 31.1973 35.8083 30.814 35.425C30.4307 35.0417 30.239 34.5667 30.239 34C30.239 33.4333 30.4307 32.9583 30.814 32.575C31.1973 32.1917 31.6723 32 32.239 32C32.8057 32 33.2807 32.1917 33.664 32.575C34.0473 32.9583 34.239 33.4333 34.239 34C34.239 34.5667 34.0473 35.0417 33.664 35.425C33.2807 35.8083 32.8057 36 32.239 36Z" fill="#ED9645" fill-opacity="0.91"/>
</g>
</g>
<defs>
<filter id="filter0_i_36_29" x="0.239014" y="0" width="49.6398" height="52" filterUnits="userSpaceOnUse" color-interpolation-filters="sRGB">
<feFlood flood-opacity="0" result="BackgroundImageFix"/>
<feBlend mode="normal" in="SourceGraphic" in2="BackgroundImageFix" result="shape"/>
<feColorMatrix in="SourceAlpha" type="matrix" values="0 0 0 0 0 0 0 0 0 0 0 0 0 0 0 0 0 0 127 0" result="hardAlpha"/>
<feOffset dy="4"/>
<feGaussianBlur stdDeviation="2"/>
<feComposite in2="hardAlpha" operator="arithmetic" k2="-1" k3="1"/>
<feColorMatrix type="matrix" values="0 0 0 0 0 0 0 0 0 0 0 0 0 0 0 0 0 0 0.25 0"/>
<feBlend mode="normal" in2="shape" result="effect1_innerShadow_36_29"/>
</filter>
<clipPath id="clip0_36_29">
<rect x="0.239014" width="49.6398" height="48" rx="12" fill="white"/>
</clipPath>
</defs>
</svg>
