<svg width="23" height="23" viewBox="0 0 23 23" fill="none" xmlns="http://www.w3.org/2000/svg">
<path d="M13.8501 10.9729C14.1503 10.9729 14.4031 10.8691 14.6085 10.6615C14.8139 10.4538 14.9166 10.1983 14.9166 9.89479C14.9166 9.59132 14.8139 9.33576 14.6085 9.12812C14.4031 8.92049 14.1503 8.81667 13.8501 8.81667C13.5499 8.81667 13.2971 8.92049 13.0917 9.12812C12.8863 9.33576 12.7836 9.59132 12.7836 9.89479C12.7836 10.1983 12.8863 10.4538 13.0917 10.6615C13.2971 10.8691 13.5499 10.9729 13.8501 10.9729ZM8.8969 10.9729C9.19709 10.9729 9.44989 10.8691 9.65528 10.6615C9.86068 10.4538 9.96338 10.1983 9.96338 9.89479C9.96338 9.59132 9.86068 9.33576 9.65528 9.12812C9.44989 8.92049 9.19709 8.81667 8.8969 8.81667C8.5967 8.81667 8.34391 8.92049 8.13851 9.12812C7.93312 9.33576 7.83042 9.59132 7.83042 9.89479C7.83042 10.1983 7.93312 10.4538 8.13851 10.6615C8.34391 10.8691 8.5967 10.9729 8.8969 10.9729ZM11.3853 16.1479C12.2385 16.1479 13.0364 15.9163 13.779 15.4531C14.5216 14.9899 15.0983 14.351 15.5091 13.5365H7.26163C7.67242 14.351 8.24911 14.9899 8.99169 15.4531C9.73428 15.9163 10.5322 16.1479 11.3853 16.1479ZM11.3853 20.125C10.2162 20.125 9.11414 19.8974 8.07926 19.4422C7.04438 18.987 6.13985 18.3681 5.36567 17.5854C4.59148 16.8028 3.97924 15.8884 3.52895 14.8422C3.07866 13.796 2.85352 12.6819 2.85352 11.5C2.85352 10.3181 3.07866 9.20399 3.52895 8.15781C3.97924 7.11163 4.59148 6.19722 5.36567 5.41458C6.13985 4.63194 7.04438 4.01302 8.07926 3.55781C9.11414 3.1026 10.2162 2.875 11.3853 2.875C12.5545 2.875 13.6566 3.1026 14.6914 3.55781C15.7263 4.01302 16.6308 4.63194 17.405 5.41458C18.1792 6.19722 18.7915 7.11163 19.2417 8.15781C19.692 9.20399 19.9172 10.3181 19.9172 11.5C19.9172 12.6819 19.692 13.796 19.2417 14.8422C18.7915 15.8884 18.1792 16.8028 17.405 17.5854C16.6308 18.3681 15.7263 18.987 14.6914 19.4422C13.6566 19.8974 12.5545 20.125 11.3853 20.125ZM11.7408 7.71458C12.199 7.71458 12.5466 7.6467 12.7836 7.51094C13.0206 7.37517 13.1391 7.17951 13.1391 6.92396C13.1391 6.78021 13.0878 6.66441 12.9851 6.57656C12.8824 6.48872 12.7441 6.44479 12.5703 6.44479C12.4597 6.44479 12.3412 6.45677 12.2148 6.48073C12.0884 6.50469 11.9304 6.51667 11.7408 6.51667C11.3458 6.51667 11.018 6.3849 10.7573 6.12135C10.4966 5.85781 10.3663 5.52639 10.3663 5.12708C10.3663 4.96736 10.3781 4.80365 10.4018 4.63594C10.4255 4.46823 10.4532 4.32847 10.4848 4.21667C10.2636 4.24861 10.0582 4.28455 9.86858 4.32448C9.67898 4.36441 9.47359 4.42431 9.25239 4.50417C9.22079 4.58403 9.20104 4.68385 9.19314 4.80365C9.18524 4.92344 9.18129 5.03125 9.18129 5.12708C9.18129 5.86181 9.42619 6.47674 9.91598 6.97188C10.4058 7.46701 11.0141 7.71458 11.7408 7.71458V7.71458Z" fill="#6D6E73"/>
</svg>
