<svg width="20" height="23" viewBox="0 0 20 23" fill="none" xmlns="http://www.w3.org/2000/svg">
<g clip-path="url(#clip0_40_9)">
<path d="M11.6953 2C12.6095 2 13.3907 2.37934 14.0388 3.13802C14.687 3.8967 15.0111 4.81111 15.0111 5.88125C15.0111 6.05694 15.0008 6.29253 14.9804 6.58802C14.9599 6.88351 14.9292 7.22292 14.8882 7.60625L13.7625 17.2615C13.6943 17.9323 13.4453 18.4514 13.0154 18.8187C12.5856 19.1861 12.1251 19.3698 11.6339 19.3698C11.3473 19.3698 11.0642 19.2939 10.7845 19.1422C10.5047 18.9904 10.2694 18.7549 10.0783 18.4354L7.88827 14.6979C7.86098 14.666 7.82004 14.634 7.76546 14.6021C7.71088 14.5701 7.64948 14.5542 7.58125 14.5542C7.55396 14.5542 7.45162 14.6181 7.27423 14.7458L5.14559 18.3635C4.95455 18.699 4.71235 18.9505 4.41898 19.1182C4.12561 19.2859 3.82882 19.3698 3.52863 19.3698C3.0374 19.3698 2.58029 19.1861 2.15729 18.8187C1.73429 18.4514 1.48868 17.9243 1.42045 17.2375L0.315189 7.60625C0.274254 7.22292 0.243552 6.88351 0.223084 6.58802C0.202617 6.29253 0.192383 6.05694 0.192383 5.88125C0.192383 4.81111 0.516456 3.8967 1.1646 3.13802C1.81275 2.37934 2.59394 2 3.50816 2C3.99939 2 4.3951 2.07587 4.69529 2.2276C4.99549 2.37934 5.28204 2.54306 5.55494 2.71875C5.82784 2.89444 6.11439 3.05816 6.41459 3.2099C6.71478 3.36163 7.11049 3.4375 7.60172 3.4375C8.09295 3.4375 8.48866 3.36163 8.78885 3.2099C9.08904 3.05816 9.37559 2.89444 9.6485 2.71875C9.9214 2.54306 10.2114 2.37934 10.5184 2.2276C10.8254 2.07587 11.2177 2 11.6953 2Z" fill="#5A5B5F"/>
</g>
<defs>
<clipPath id="clip0_40_9">
<rect width="19.6491" height="23" fill="white" transform="translate(0.192383)"/>
</clipPath>
</defs>
</svg>
