<svg width="24" height="21" viewBox="0 0 24 21" fill="none" xmlns="http://www.w3.org/2000/svg">
<g clip-path="url(#clip0_42_18)">
<path d="M7.80036 18.7406V14.9125C6.89978 14.1542 6.20065 13.2609 5.70296 12.2328C5.20527 11.2047 4.95642 10.1292 4.95642 9.00625C4.95642 6.78958 5.79775 4.90104 7.48042 3.34063C9.16309 1.78021 11.2052 1 13.6068 1C15.6133 1 17.3908 1.54687 18.9391 2.64063C20.4875 3.73438 21.4908 5.15625 21.949 6.90625L23.2762 11.6969C23.3394 11.9302 23.292 12.1417 23.134 12.3313C22.976 12.5208 22.7627 12.6156 22.4941 12.6156H20.3848V15.5031C20.3848 15.926 20.2268 16.2797 19.9108 16.5641C19.5948 16.8484 19.2077 16.9906 18.7495 16.9906H16.5929V18.7406H12.6351L13.2039 13.2063H16.2848V11.8063H13.3461L13.4883 10.45C13.5041 10.2021 13.6107 9.99792 13.8082 9.8375C14.0057 9.67708 14.2308 9.59688 14.4836 9.59688H18.0386V8.175H14.6021C13.9227 8.175 13.3303 8.3901 12.8247 8.82031C12.3191 9.25052 12.0268 9.77917 11.9478 10.4063L11.0946 18.7406H7.80036Z" fill="#5A5B5F"/>
</g>
<defs>
<clipPath id="clip0_42_18">
<rect width="22.7516" height="21" fill="white" transform="translate(0.819824)"/>
</clipPath>
</defs>
</svg>
