<svg width="26" height="30" viewBox="0 0 26 30" fill="none" xmlns="http://www.w3.org/2000/svg">
<g clip-path="url(#clip0_41_15)">
<path d="M10.67 15C10.3081 15 10.0108 14.8333 9.77807 14.5C9.54539 14.1667 9.46352 13.7917 9.53246 13.375L9.92027 10.5625C10.0582 9.66667 10.4072 8.93229 10.9674 8.35938C11.5275 7.78646 12.1782 7.5 12.9193 7.5C13.6777 7.5 14.337 7.78646 14.8972 8.35938C15.4573 8.93229 15.8064 9.66667 15.9443 10.5625L16.3321 13.375C16.401 13.7917 16.3191 14.1667 16.0865 14.5C15.8538 14.8333 15.5565 15 15.1945 15H10.67ZM4.10311 17.2187C3.75839 17.2396 3.45676 17.1562 3.19822 16.9687C2.93968 16.7812 2.77594 16.5 2.70699 16.125C2.67252 15.9583 2.66821 15.7917 2.69407 15.625C2.71992 15.4583 2.7587 15.3021 2.81041 15.1562C2.81041 15.1771 2.80179 15.1354 2.78455 15.0312C2.78455 15.0104 2.70699 14.7917 2.55187 14.375C2.5174 14.1458 2.53463 13.9427 2.60358 13.7656C2.67252 13.5885 2.77594 13.4167 2.91383 13.25L2.96553 13.1875C3.00001 12.8333 3.12066 12.5417 3.32749 12.3125C3.53432 12.0833 3.78424 11.9687 4.07726 11.9687C4.09449 11.9687 4.23238 12 4.49092 12.0625L4.56848 12.0312C4.65466 11.9479 4.75377 11.8802 4.86581 11.8281C4.97784 11.776 5.1028 11.75 5.24069 11.75C5.39581 11.75 5.54232 11.7865 5.68021 11.8594C5.8181 11.9323 5.92151 12.0313 5.99046 12.1563C6.00769 12.1563 6.02062 12.1615 6.02924 12.1719C6.03785 12.1823 6.05078 12.1875 6.06802 12.1875C6.27485 12.2083 6.45583 12.2865 6.61095 12.4219C6.76608 12.5573 6.88673 12.7396 6.97291 12.9688C7.00738 13.0938 7.02031 13.2188 7.01169 13.3438C7.00307 13.4688 6.98153 13.5833 6.94706 13.6875C6.94706 13.7292 6.95567 13.7604 6.97291 13.7812C7.07633 13.9062 7.1582 14.0469 7.21852 14.2031C7.27885 14.3594 7.30901 14.5208 7.30901 14.6875C7.30901 14.7292 7.26592 14.9167 7.17974 15.25C7.16251 15.2917 7.16251 15.3333 7.17974 15.375C7.19698 15.4583 7.2056 15.6042 7.2056 15.8125C7.2056 16.1875 7.07633 16.5156 6.81778 16.7969C6.55924 17.0781 6.24038 17.2187 5.86119 17.2187H4.10311ZM21.3995 17.1875C20.8996 17.1875 20.473 16.974 20.1197 16.5469C19.7663 16.1198 19.5897 15.6042 19.5897 15C19.5897 14.7708 19.6198 14.5573 19.6802 14.3594C19.7405 14.1615 19.8137 13.9792 19.8999 13.8125L19.2536 13.125C19.1157 12.9583 19.0898 12.7708 19.176 12.5625C19.2622 12.3542 19.4001 12.25 19.5897 12.25H21.3995C21.8993 12.25 22.3259 12.4635 22.6792 12.8906C23.0326 13.3177 23.2092 13.8333 23.2092 14.4375V15C23.2092 15.6042 23.0326 16.1198 22.6792 16.5469C22.3259 16.974 21.8993 17.1875 21.3995 17.1875V17.1875ZM0.509399 22.5V20.8437C0.509399 20.0312 0.871356 19.375 1.59527 18.875C2.31918 18.375 3.24993 18.125 4.38751 18.125C4.61157 18.125 4.81841 18.1302 5.008 18.1406C5.1976 18.151 5.38719 18.1771 5.57679 18.2187C5.4389 18.5729 5.33549 18.9323 5.26654 19.2969C5.1976 19.6615 5.16313 20.0521 5.16313 20.4688V22.5H0.509399ZM6.71437 22.5V20.4688C6.71437 19.1146 7.28747 18.0208 8.43366 17.1875C9.57986 16.3542 11.0751 15.9375 12.9193 15.9375C14.7808 15.9375 16.2804 16.3542 17.4179 17.1875C18.5555 18.0208 19.1243 19.1146 19.1243 20.4688V22.5H6.71437ZM21.4512 18.125C22.6232 18.125 23.5626 18.375 24.2693 18.875C24.9759 19.375 25.3293 20.0312 25.3293 20.8437V22.5H20.6755V20.4688C20.6755 20.0521 20.6454 19.6615 20.5851 19.2969C20.5247 18.9323 20.4256 18.5729 20.2877 18.2187C20.4773 18.1771 20.6669 18.151 20.8565 18.1406C21.0461 18.1302 21.2443 18.125 21.4512 18.125Z" fill="#6D6E73"/>
</g>
<defs>
<clipPath id="clip0_41_15">
<rect width="24.8199" height="30" fill="white" transform="translate(0.509399)"/>
</clipPath>
</defs>
</svg>
