<svg width="46" height="35" viewBox="0 0 46 35" fill="none" xmlns="http://www.w3.org/2000/svg">
<path d="M22.9037 17.3906C23.9149 17.3906 24.7838 17.1169 25.5106 16.5696C26.2374 16.0232 26.6008 15.3611 26.6008 14.5833C26.6008 13.8055 26.2374 13.1371 25.5106 12.5781C24.7838 12.0191 23.9149 11.7396 22.9037 11.7396C21.8925 11.7396 21.0317 12.0191 20.3214 12.5781C19.6098 13.1371 19.254 13.8055 19.254 14.5833C19.254 15.3611 19.6098 16.0232 20.3214 16.5696C21.0317 17.1169 21.8925 17.3906 22.9037 17.3906ZM22.9037 28.3281C26.7904 25.5816 29.6817 23.0903 31.5777 20.8541C33.4737 18.618 34.4217 16.625 34.4217 14.875C34.4217 12.1771 33.3075 9.97741 31.0791 8.27602C28.8519 6.57463 26.1268 5.72394 22.9037 5.72394C19.6805 5.72394 16.963 6.57463 14.751 8.27602C12.5391 9.97741 11.4331 12.1771 11.4331 14.875C11.4331 16.625 12.3735 18.618 14.2543 20.8541C16.1338 23.0903 19.017 25.5816 22.9037 28.3281ZM22.9037 31.9375C17.8478 28.6076 14.0792 25.533 11.5981 22.7135C9.11813 19.8941 7.87817 17.2812 7.87817 14.875C7.87817 11.2535 9.38736 8.36692 12.4057 6.2154C15.4228 4.06484 18.9222 2.98956 22.9037 2.98956C26.8852 2.98956 30.3927 4.06484 33.4263 6.2154C36.4598 8.36692 37.9766 11.2535 37.9766 14.875C37.9766 17.2812 36.7366 19.8941 34.2567 22.7135C31.7755 25.533 27.9912 28.6076 22.9037 31.9375V31.9375Z" fill="white"/>
</svg>
