<svg width="64" height="55" viewBox="0 0 64 55" fill="none" xmlns="http://www.w3.org/2000/svg">
<path d="M15.1566 40.3906C17.8945 38.7101 20.6106 37.421 23.3049 36.5234C25.9993 35.6258 28.8892 35.1771 31.9747 35.1771C35.0602 35.1771 37.961 35.6258 40.6771 36.5234C43.3932 37.421 46.1202 38.7101 48.858 40.3906C50.7702 38.3281 52.1282 36.2465 52.9322 34.1458C53.7362 32.0451 54.1381 29.8298 54.1381 27.5C54.1381 21.9618 52.0196 17.3307 47.7825 13.6068C43.5453 9.88279 38.2761 8.02081 31.9747 8.02081C25.6734 8.02081 20.4041 9.88279 16.167 13.6068C11.9299 17.3307 9.81134 21.9618 9.81134 27.5C9.81134 29.8298 10.2242 32.0451 11.0499 34.1458C11.8756 36.2465 13.2445 38.3281 15.1566 40.3906ZM31.9747 29.2187C29.4542 29.2187 27.3356 28.4644 25.6191 26.9557C23.9025 25.447 23.0442 23.585 23.0442 21.3698C23.0442 19.1545 23.9025 17.2925 25.6191 15.7838C27.3356 14.2752 29.4542 13.5208 31.9747 13.5208C34.4953 13.5208 36.6138 14.2752 38.3304 15.7838C40.047 17.2925 40.9053 19.1545 40.9053 21.3698C40.9053 23.585 40.047 25.447 38.3304 26.9557C36.6138 28.4644 34.4953 29.2187 31.9747 29.2187ZM31.9747 50.4166C28.4112 50.4166 25.0432 49.8151 21.8708 48.612C18.6984 47.4088 15.928 45.7665 13.5596 43.6849C11.1911 41.6033 9.32244 39.1684 7.95352 36.3802C6.5846 33.592 5.90015 30.6319 5.90015 27.5C5.90015 24.3298 6.5846 21.3602 7.95352 18.5911C9.32244 15.822 11.1911 13.3967 13.5596 11.3151C15.928 9.23349 18.6984 7.59113 21.8708 6.388C25.0432 5.18488 28.4112 4.58331 31.9747 4.58331C35.5817 4.58331 38.9606 5.18488 42.1112 6.388C45.2619 7.59113 48.0215 9.23349 50.3899 11.3151C52.7584 13.3967 54.627 15.822 55.996 18.5911C57.3649 21.3602 58.0493 24.3298 58.0493 27.5C58.0493 30.6319 57.3649 33.592 55.996 36.3802C54.627 39.1684 52.7584 41.6033 50.3899 43.6849C48.0215 45.7665 45.2619 47.4088 42.1112 48.612C38.9606 49.8151 35.5817 50.4166 31.9747 50.4166ZM31.9747 46.9791C34.3649 46.9791 36.7008 46.6736 38.9823 46.0625C41.2638 45.4514 43.5127 44.3819 45.7291 42.8541C43.5127 41.4791 41.253 40.4288 38.9497 39.7031C36.6464 38.9774 34.3215 38.6146 31.9747 38.6146C29.628 38.6146 27.303 38.9774 24.9998 39.7031C22.6965 40.4288 20.4367 41.4791 18.2204 42.8541C20.4367 44.3819 22.6857 45.4514 24.9672 46.0625C27.2487 46.6736 29.5846 46.9791 31.9747 46.9791ZM31.9747 25.7812C33.4523 25.7812 34.6583 25.3706 35.5926 24.5495C36.5269 23.7283 36.9941 22.6684 36.9941 21.3698C36.9941 20.0712 36.5269 19.0113 35.5926 18.1901C34.6583 17.3689 33.4523 16.9583 31.9747 16.9583C30.4972 16.9583 29.2912 17.3689 28.3569 18.1901C27.4226 19.0113 26.9554 20.0712 26.9554 21.3698C26.9554 22.6684 27.4226 23.7283 28.3569 24.5495C29.2912 25.3706 30.4972 25.7812 31.9747 25.7812Z" fill="#ED9645"/>
</svg>
