<svg width="28" height="28" viewBox="0 0 28 28" fill="none" xmlns="http://www.w3.org/2000/svg">
<path d="M22.4398 24.3373L15.4376 17.306C14.8961 17.7373 14.2661 18.0748 13.5476 18.3185C12.8283 18.5623 12.0673 18.6842 11.2643 18.6842C9.22906 18.6842 7.5112 17.9765 6.11077 16.5613C4.71035 15.1453 4.01013 13.4248 4.01013 11.3998C4.01013 9.37479 4.71035 7.65429 6.11077 6.23829C7.5112 4.82304 9.22906 4.11542 11.2643 4.11542C13.281 4.11542 14.9895 4.82304 16.3899 6.23829C17.7903 7.65429 18.4905 9.37479 18.4905 11.3998C18.4905 12.206 18.3692 12.9699 18.1264 13.6914C17.8837 14.4137 17.5569 15.0467 17.1461 15.5904L24.1203 22.6217L22.4398 24.3373ZM11.2643 16.2373C12.6088 16.2373 13.7478 15.7685 14.6814 14.831C15.615 13.8935 16.0818 12.7498 16.0818 11.3998C16.0818 10.0498 15.615 8.90604 14.6814 7.96854C13.7478 7.03104 12.6088 6.56229 11.2643 6.56229C9.90126 6.56229 8.75291 7.03104 7.81929 7.96854C6.88568 8.90604 6.41887 10.0498 6.41887 11.3998C6.41887 12.7498 6.88568 13.8935 7.81929 14.831C8.75291 15.7685 9.90126 16.2373 11.2643 16.2373V16.2373Z" fill="white"/>
</svg>
